<svg width="18" height="19" viewBox="0 0 18 19" fill="none" xmlns="http://www.w3.org/2000/svg">
<path d="M1.19531 4.69043V5.14746L8.10352 10.0166L15.0117 5.14746V4.69043C15.0117 4.46777 14.9268 4.2627 14.7568 4.0752C14.5869 3.8877 14.3672 3.79395 14.0977 3.79395H2.10938C1.875 3.79395 1.66406 3.87891 1.47656 4.04883C1.28906 4.21875 1.19531 4.43262 1.19531 4.69043ZM1.19531 6.4834V13.6904C1.19531 13.9131 1.28027 14.1182 1.4502 14.3057C1.62012 14.4932 1.83984 14.5869 2.10938 14.5869H14.1855C14.4082 14.5869 14.6133 14.502 14.8008 14.332C14.9883 14.1621 15.082 13.9482 15.082 13.6904V6.4834L8.47266 11.1416C8.36719 11.2119 8.25879 11.2471 8.14746 11.2471C8.03613 11.2471 7.92188 11.2119 7.80469 11.1416L1.19531 6.4834ZM16.207 5.44629V13.6904C16.207 14.2529 16.0078 14.7422 15.6094 15.1582C15.2109 15.5742 14.707 15.7822 14.0977 15.7822H2.10938C1.54688 15.7822 1.05469 15.583 0.632812 15.1846C0.210938 14.7861 0 14.2881 0 13.6904V4.69043C0 4.12793 0.199219 3.63867 0.597656 3.22266C0.996094 2.80664 1.5 2.59863 2.10938 2.59863H14.0977C14.6602 2.59863 15.1523 2.79785 15.5742 3.19629C15.9961 3.59473 16.207 4.09277 16.207 4.69043V5.44629Z" fill="#576071"/>
</svg>
